<svg xmlns="http://www.w3.org/2000/svg" xmlns:xlink="http://www.w3.org/1999/xlink" viewBox="0,0,256,256" width="500px" height="500px" fill-rule="nonzero"><g fill="#fcc419" fill-rule="nonzero" stroke="none" stroke-width="1" stroke-linecap="butt" stroke-linejoin="miter" stroke-miterlimit="10" stroke-dasharray="" stroke-dashoffset="0" font-family="none" font-weight="none" font-size="none" text-anchor="none" style="mix-blend-mode: normal"><g transform="scale(5.12,5.12)"><path d="M30.03125,3c-0.16406,-0.00391 -0.32812,0.03125 -0.47656,0.10547c-0.62891,0.3125 -1.03125,0.77344 -1.39453,1.17578c-0.35937,0.40234 -0.62891,0.76172 -0.62891,0.76172c-0.01172,0.01563 -0.02344,0.03125 -0.03125,0.04688c-0.99219,1.49219 -1.48047,3.19141 -1.5,4.90234c-0.01172,1.31641 0.25391,2.64063 0.76953,3.88672c1.26172,3.02734 3.79688,5.36719 6.77734,6.48438h0.00391c0.13672,0.05469 0.25781,0.09766 0.35547,0.13281c0.01563,0.00391 0.03125,0.00781 0.04688,0.01563c0.01953,0.00391 0.0625,0.01953 0.13672,0.03906c0.11328,0.03906 0.30469,0.11719 0.58594,0.17188c0.81641,0.16406 1.57813,0.25 2.29297,0.27344c3.16406,0.09766 5.35547,-1.12109 6.72266,-2.45312c0.68359,-0.66797 1.17188,-1.35937 1.51563,-1.92187c0.34766,-0.5625 0.61328,-1.07031 0.61719,-1.07422h0.00391c0.30078,-0.45703 0.17969,-1.07031 -0.26953,-1.37891c-0.45312,-0.30859 -1.07031,-0.19531 -1.38672,0.25391c-0.77344,1.13672 -1.73437,1.78906 -2.96094,2.10547c-1.22656,0.31641 -2.73437,0.26953 -4.46484,-0.16016c-0.23437,-0.05859 -0.52344,-0.15234 -0.78516,-0.25c0,0 -0.00391,0 -0.00781,-0.00391c-0.31641,-0.11328 -0.64062,-0.25 -0.95703,-0.40234l-0.00391,-0.00391l-0.00781,-0.00391c-0.58984,-0.29297 -1.16016,-0.64453 -1.67969,-1.05078c-1.4375,-1.11719 -2.55469,-2.94531 -3.03125,-4.85547c-0.47656,-1.91016 -0.3125,-3.85547 0.57422,-5.26562c0.19141,-0.30469 0.20313,-0.6875 0.03516,-1.00391c-0.16797,-0.31641 -0.49219,-0.51562 -0.85156,-0.52734zM20.99609,5c-0.23047,0 -0.45312,0.08203 -0.62891,0.22656c-1.60156,1.30469 -3.125,3.33203 -3.125,3.33203c-0.01172,0.01172 -0.01953,0.02734 -0.02734,0.04297c-2.96094,4.30469 -2.77734,9.96484 -0.52344,14.42969c0.37109,0.73828 0.79297,1.45703 1.26563,2.14063c0.00391,0.00391 0.00391,0.00391 0.00391,0.00391c0.37109,0.54688 0.82031,1.26172 1.46875,1.85938c0.21094,0.24219 0.42969,0.46875 0.64844,0.68359c0.05078,0.05469 0.10547,0.10938 0.15625,0.16016c0.00391,0.00781 0.00781,0.01172 0.01172,0.01172c0.20703,0.20313 0.42188,0.40625 0.64453,0.60547l0.00391,0.00391c0.00781,0.00781 0.01953,0.01953 0.02734,0.02734l0.01563,0.00781c0.01172,0.01563 0.02734,0.02734 0.04297,0.03906c0.23438,0.21094 0.47266,0.41016 0.71875,0.60156c0.01172,0.01172 0.01953,0.01953 0.03125,0.02734c0,0 0.05469,0.04688 0.16797,0.12891c0.25,0.19531 0.50391,0.38281 0.75391,0.5625c0.03125,0.02344 0.06641,0.04688 0.09766,0.0625c0.02344,0.01563 0.03906,0.02734 0.05859,0.04297h0.00391c0.08984,0.0625 0.17969,0.12109 0.25391,0.17188c0.02344,0.01563 0.07813,0.05469 0.16797,0.11328c0.19531,0.12891 0.38672,0.24609 0.58594,0.36719c0.01953,0.01172 0.04297,0.02344 0.0625,0.03516c0,0 0.03125,0.01563 0.06641,0.03125c0.00781,0.00781 0.00781,0.00391 0.01953,0.01172c0.15625,0.09375 0.31641,0.1875 0.48438,0.27344c0.05859,0.03516 0.12891,0.07031 0.14844,0.08203c0.01172,0.00781 0.02344,0.01172 0.03516,0.01953c0.10156,0.05078 0.21094,0.10938 0.32422,0.17188c0.09766,0.05078 0.125,0.05469 0.11719,0.05469c0.25,0.12109 0.48828,0.23047 0.71094,0.33594c0.01563,0.00391 0.03125,0.01172 0.05078,0.01953c0.04688,0.01953 0.08594,0.03516 0.13672,0.05859c0.19922,0.08203 0.40625,0.17578 0.625,0.25781c0.01172,0.00391 0.02734,0.01172 0.03906,0.01563c0.04297,0.01563 0.11719,0.04297 0.23047,0.08594c0,0 0.00391,0 0.00391,0.00391c0.1875,0.06641 0.37891,0.12891 0.56641,0.19141c0.09766,0.03516 0.18359,0.0625 0.25781,0.08984c0,0 0,0 0.00391,0c0.20703,0.06641 0.51563,0.19531 0.93359,0.26563c0,0 0,-0.00391 0.00391,0c1.57813,0.26172 3.03516,0.36719 4.37891,0.33984c5.49609,-0.12109 9.05859,-2.54297 11.14844,-4.92578c2.08594,-2.38281 2.78906,-4.78906 2.78906,-4.78906c0.14063,-0.47266 -0.08594,-0.97266 -0.53125,-1.18359c-0.44141,-0.21094 -0.97266,-0.06641 -1.25391,0.33984c-2.65625,3.88281 -7.82031,5.87891 -13.46875,4.39063c-0.25,-0.0625 -0.49219,-0.13281 -0.73047,-0.21484c-0.01562,-0.00391 -0.03516,-0.01172 -0.05469,-0.01562c-0.03516,-0.00781 -0.08203,-0.02344 -0.16406,-0.05078c-0.00781,-0.00391 -0.01562,-0.00781 -0.01953,-0.01172c-0.18359,-0.05859 -0.35547,-0.11328 -0.51172,-0.17578c0,0 0,0 -0.00391,0c-0.08984,-0.03516 -0.16797,-0.0625 -0.23437,-0.08984c-0.19922,-0.07812 -0.38672,-0.15234 -0.54687,-0.22266c-0.01172,-0.00781 -0.01953,-0.01172 -0.03125,-0.01562c-0.08594,-0.03516 -0.125,-0.05469 -0.07031,-0.02734c-0.02344,-0.01172 -0.04687,-0.01953 -0.07031,-0.03125c-0.21875,-0.09766 -0.44531,-0.20312 -0.67187,-0.31641l-0.01562,-0.00391c0,-0.00391 -0.00391,-0.00391 -0.00781,-0.00781c-0.11328,-0.05859 -0.22266,-0.11328 -0.33594,-0.17578c-0.00391,0 -0.00781,-0.00391 -0.01562,-0.00391c-0.07031,-0.03906 -0.13672,-0.07422 -0.19531,-0.10547v0.00391c-0.12891,-0.06641 -0.26172,-0.14844 -0.41797,-0.24219c-0.01172,-0.00391 -0.01953,-0.00781 -0.02734,-0.01172c-0.04687,-0.02734 -0.0625,-0.03516 -0.07031,-0.04297h-0.00391l-0.00781,-0.00391c-0.19141,-0.11719 -0.37109,-0.22656 -0.51172,-0.32422c-0.01953,-0.01172 -0.04297,-0.02344 -0.0625,-0.03516c0.01563,0.00781 -0.02734,-0.02344 -0.12891,-0.08984c-0.10547,-0.06641 -0.21484,-0.13672 -0.33203,-0.21875h-0.00391c-0.00391,-0.00391 -0.00781,-0.00781 -0.01562,-0.00781c-0.21875,-0.16016 -0.44531,-0.33203 -0.67578,-0.50781l-0.01953,-0.01953c-0.05469,-0.04297 -0.10156,-0.07812 -0.13281,-0.10547c-0.00781,-0.00391 -0.01562,-0.01172 -0.02344,-0.01953c-2.49219,-1.98828 -4.45312,-4.71094 -5.375,-7.75391v-0.00391c-0.92578,-2.99609 0.02734,-6.67578 1.64844,-9.47656c0.17969,-0.30859 0.17969,-0.69141 0,-1.00391c-0.17969,-0.30859 -0.51172,-0.49609 -0.86719,-0.49609zM10.00391,8c-0.24609,0 -0.48828,0.08984 -0.67187,0.25781c-0.05469,0.04688 -0.08203,0.09766 -0.13672,0.14844c-1.94141,1.79688 -3.32422,3.98438 -3.35156,4.03125c-4.02344,5.84766 -3.48828,14.82031 -0.48437,20.87891c0,0.00391 0,0.00781 0,0.01172c0.07813,0.16406 0.15625,0.30859 0.21875,0.42188c0.03125,0.07031 0.06641,0.13672 0.10156,0.20313c0.07422,0.16797 0.12891,0.23828 0.13672,0.25c0.04688,0.08984 0.09375,0.17969 0.12891,0.24609c0.00391,0.00781 0.01172,0.01953 0.01563,0.02734c0.08984,0.14453 0.17578,0.30469 0.27344,0.46484c0,0.00391 0.00391,0.00781 0.00781,0.01172c0.04297,0.07031 0.09766,0.17188 0.18359,0.29688c0.10938,0.17969 0.21094,0.33984 0.28516,0.45703c0.00391,0.00781 0.00781,0.01172 0.00781,0.01563c0.03906,0.05859 0.08594,0.13672 0.14453,0.21875c0.00391,0.00781 0.00781,0.01172 0.01172,0.01563c0.00391,0.00781 0.00391,0.01172 0.01172,0.02344c0.13672,0.20703 0.28125,0.42188 0.44141,0.64453c0.01563,0.01953 0.01172,0.01172 0.02344,0.03125c0.01172,0.01563 0.01172,0.01563 0.01953,0.02734c0.00391,0.00391 0.01172,0.01563 0.01563,0.02344l0.00391,0.00391c0.00781,0.01172 0.03906,0.05078 0.03906,0.05078c0,0.00391 0.00391,0.00781 0.00781,0.00781c0.14063,0.19531 0.28516,0.39453 0.4375,0.58984c0.05859,0.07813 0.10938,0.14453 0.13672,0.17969c0.00781,0.01172 0.01953,0.02344 0.02734,0.03906c0.12891,0.15234 0.25391,0.30859 0.38281,0.46875c0.00391,0.00781 0.00781,0.01172 0.01172,0.01563c0.03906,0.04688 0.08984,0.10547 0.14453,0.17188c0.16797,0.20313 0.33984,0.39844 0.51563,0.59375c0.01563,0.01563 0.03125,0.03516 0.04688,0.05078l-0.00781,-0.01172c0.05078,0.05859 0.14063,0.15625 0.23047,0.21484l-0.1875,-0.16016c0.18359,0.20313 0.37109,0.40234 0.55859,0.60156c0.00391,0.00391 0.00781,0.00391 0.00781,0.00781c0.06641,0.06641 0.13281,0.13281 0.20313,0.20313c0.13281,0.13281 0.27344,0.27734 0.4375,0.43359c0.0625,0.05859 0.125,0.11328 0.16797,0.16016c0.00391,0.00391 0.00391,0.00391 0.00781,0.00391c0.17969,0.17188 0.375,0.35547 0.58203,0.53906c0.01953,0.01172 0.03125,0.02734 0.04688,0.03906c0,0.00391 0,0.00391 0,0.00391c0.05469,0.04688 0.08594,0.07422 0.07813,0.06641c0.01172,0.00781 0.01953,0.01953 0.03125,0.02734c0.18359,0.16016 0.36719,0.31641 0.55078,0.47266c0.08984,0.07031 0.16797,0.13281 0.23438,0.19141c0.00391,0 0.00391,0 0.00781,0c0.16406,0.13672 0.32031,0.25391 0.46875,0.36719c0,0.00391 0.00391,0.00391 0.00391,0.00781c0.07422,0.05469 0.15234,0.11328 0.23828,0.17969c0.00391,0.00391 0.00781,0.00391 0.01172,0.00781c0.17578,0.13281 0.35156,0.25781 0.51953,0.37891c0.05078,0.03906 0.10938,0.07813 0.17188,0.12109c-0.00391,-0.00391 0.01953,0.01563 0.01172,0.01172c0.02734,0.01953 0.05469,0.03906 0.07813,0.05469c0.16406,0.10938 0.32422,0.21875 0.49219,0.32813c0,0.00391 0.00391,0.00391 0.00391,0.00391c0.07422,0.04688 0.14063,0.09375 0.20703,0.13672c0.00391,0.00391 0.00781,0.00781 0.01563,0.01172c0.26563,0.17188 0.52734,0.33203 0.78516,0.48828c0.01563,0.01172 0.03125,0.01953 0.04688,0.02734c0.0625,0.03516 0.12109,0.06641 0.17578,0.09766c0.00391,0.00391 0.00391,0.00391 0.00781,0.00781c0.19922,0.11328 0.39844,0.23047 0.60938,0.34375l-0.01953,-0.01172c0.14063,0.07813 0.26563,0.13672 0.36719,0.1875c0.125,0.07031 0.25781,0.14453 0.39844,0.21484c0.01953,0.01172 0.04297,0.02344 0.06641,0.03516c0.07422,0.02734 0.07422,0.03516 -0.00391,-0.01172c0.02734,0.01953 0.05469,0.03125 0.08203,0.04297c0.01172,0.00781 0.05469,0.02734 0.12891,0.06641c0.00391,0 0.00391,0 0.00781,0c0.23047,0.11719 0.45703,0.22266 0.69141,0.32422c0.05469,0.02734 0.08984,0.04297 0.07813,0.03516c0.02344,0.01172 0.04297,0.02344 0.0625,0.03125c0.26172,0.11719 0.52734,0.22656 0.79688,0.33594c0.00391,0 0.01172,0.00391 0.01563,0.00391c0.01563,0.00391 0.09375,0.03906 0.17188,0.06641c0.01563,0.00781 0.03125,0.01172 0.04688,0.01563c0.00781,0.00391 0.00391,0.00391 0.01172,0.00781c0.21484,0.08203 0.42969,0.16406 0.64453,0.23828c0.05859,0.02734 0.10938,0.04297 0.14453,0.05859c0.28125,0.09375 0.55469,0.18359 0.83594,0.26953c0.00781,0.00391 0.01563,0.00781 0.02734,0.01172c0.01563,0.00391 0.08984,0.02734 0.17188,0.05078c0.00391,0 0.00781,0.00391 0.01172,0.00391c0.01953,0.00391 0.01563,0.00391 0.03516,0.01172c0.23828,0.07422 0.51953,0.17969 0.88672,0.25c0.00391,0 0.00391,0 0.00781,0c1.92969,0.35547 3.72266,0.51563 5.39453,0.51563c14.33594,0.00391 18.93359,-11.64453 18.93359,-11.64453c0.17578,-0.46484 -0.01562,-0.98828 -0.44922,-1.23047c-0.43359,-0.23828 -0.98047,-0.125 -1.28125,0.26953c-4.08203,5.36719 -11.40234,6.45313 -18.54297,4.8125c-0.21484,-0.05078 -0.46875,-0.12891 -0.76172,-0.21875c-0.00391,0 -0.01172,-0.00391 -0.01562,-0.00391c-0.05078,-0.01562 -0.10547,-0.03125 -0.13281,-0.04297c-0.01562,-0.00391 -0.03125,-0.00781 -0.04687,-0.01172c-0.25,-0.07812 -0.50391,-0.16406 -0.75781,-0.25c-0.00391,-0.00391 -0.01172,-0.00391 -0.01953,-0.00781c-0.01562,-0.00391 -0.03125,-0.00781 -0.04297,-0.01562c-0.01562,-0.00391 -0.03125,-0.01172 -0.05078,-0.01562c-0.19531,-0.07031 -0.40625,-0.14844 -0.625,-0.23437l-0.03516,-0.01562c-0.08594,-0.03125 -0.16016,-0.05859 -0.19141,-0.07422c-0.23437,-0.09375 -0.47656,-0.19531 -0.71484,-0.30078c-0.02344,-0.01172 -0.04297,-0.01953 -0.0625,-0.02734c0.00391,0 -0.04687,-0.01953 -0.07812,-0.03125c-0.20703,-0.09766 -0.41016,-0.19531 -0.62109,-0.29687c-0.01562,-0.00391 -0.02734,-0.01172 -0.04297,-0.01953c-0.01172,-0.00391 -0.04687,-0.01953 -0.11719,-0.05859c-0.00781,-0.00391 -0.01562,-0.00781 -0.02734,-0.01172c-0.13672,-0.06641 -0.28906,-0.14453 -0.44531,-0.23047c-0.00391,-0.00391 -0.01172,-0.00781 -0.01562,-0.01172c-0.125,-0.0625 -0.22266,-0.10937 -0.29297,-0.15234c-0.00781,0 -0.01172,-0.00391 -0.01953,-0.00781c-0.18359,-0.09766 -0.375,-0.21094 -0.57812,-0.32422l0.07813,0.04688c-0.13281,-0.08594 -0.22656,-0.13281 -0.28125,-0.16406l0.03125,0.01563c-0.25391,-0.15234 -0.50391,-0.30469 -0.74219,-0.45703c-0.00391,-0.00391 -0.00781,-0.00391 -0.00781,-0.00781c-0.04687,-0.02734 -0.10156,-0.0625 -0.16797,-0.10937c-0.01172,-0.01172 -0.02734,-0.01953 -0.03906,-0.02734c-0.16406,-0.10547 -0.33203,-0.22266 -0.50781,-0.33984l-0.01172,-0.00781c-0.03516,-0.02734 -0.08984,-0.06641 -0.16406,-0.12109c-0.15625,-0.10937 -0.3125,-0.22266 -0.47266,-0.34375h-0.00781c-0.00781,-0.00781 -0.01172,-0.01172 -0.01953,-0.01953c-0.0625,-0.05078 -0.13281,-0.10156 -0.20312,-0.15625c-0.15625,-0.12109 -0.30469,-0.23437 -0.4375,-0.34375l-0.01953,-0.01172c-0.07812,-0.06641 -0.14844,-0.125 -0.19922,-0.16797c0,0 -0.00391,0 -0.00781,-0.00391c-0.18359,-0.14844 -0.35937,-0.30469 -0.55078,-0.46875l0.08203,0.08203c-0.16016,-0.17969 -0.23437,-0.20312 -0.19531,-0.17578l0.05469,0.04688c-0.19141,-0.17187 -0.38672,-0.35547 -0.58594,-0.54297l-0.01172,-0.00781c-0.03125,-0.03125 -0.08203,-0.08203 -0.14844,-0.14453l-0.02734,-0.02734c-0.14453,-0.14062 -0.27734,-0.27344 -0.39844,-0.39453c-0.00391,-0.00391 -0.00391,-0.00391 -0.00781,-0.00781c-0.05469,-0.05469 -0.10547,-0.10937 -0.16797,-0.17187c-0.17187,-0.17187 -0.33984,-0.35547 -0.50781,-0.54297c-0.00781,-0.00781 -0.01953,-0.01953 -0.02734,-0.03125h-0.00391c-0.17578,-0.19141 -0.34766,-0.39062 -0.52344,-0.59766c0,-0.00391 0,-0.00781 -0.00391,-0.01172c-0.02734,-0.03125 -0.07422,-0.08984 -0.14844,-0.17578c-0.12109,-0.14844 -0.24219,-0.30469 -0.375,-0.46484l-0.00391,-0.00391c-0.04297,-0.05859 -0.08984,-0.12109 -0.11719,-0.15625l-0.00391,-0.00391c-0.14844,-0.19531 -0.28906,-0.38672 -0.42969,-0.58203l-0.00391,-0.00391c-1.88281,-2.59375 -3.18359,-6.78906 -3.54687,-10.82812c-0.36719,-4.03516 0.26172,-7.91016 1.66797,-9.81641c0.22656,-0.30078 0.26172,-0.70312 0.09375,-1.03906c-0.16797,-0.33984 -0.51172,-0.55078 -0.89062,-0.55469zM28.20313,8.64844c0.05469,0.54688 -0.00391,1.09766 0.12891,1.63281c0.58203,2.31641 1.88281,4.50391 3.74609,5.95313c0.63672,0.49219 1.32031,0.91797 2.02734,1.26563c0.00391,0.00391 0.00781,0.00781 0.01172,0.00781c0.375,0.17969 0.76172,0.34375 1.15625,0.48828l-0.00781,-0.00391c0.30469,0.11328 0.64844,0.23047 0.99609,0.31641c0.90234,0.22266 1.77344,0.33984 2.61719,0.38672c-0.59375,0.12109 -1.08984,0.32422 -1.84766,0.30078c-0.59375,-0.01953 -1.25,-0.09375 -1.96484,-0.23437h-0.00391c-0.04687,-0.00781 -0.16797,-0.05469 -0.375,-0.11719c-0.02344,-0.00781 -0.07031,-0.02344 -0.12109,-0.03906c-0.12109,-0.04297 -0.21875,-0.07422 -0.29297,-0.10547c-0.00781,-0.00391 -0.01172,-0.00391 -0.01953,-0.00781c-2.46875,-0.92578 -4.60547,-2.90234 -5.63672,-5.38281c-0.41797,-1.00781 -0.62891,-2.0625 -0.61719,-3.09766c0.00391,-0.46484 0.11328,-0.91406 0.20313,-1.36328zM18.03906,11.46875c-0.25391,1.69141 -0.25,3.42578 0.26172,5.09375c1.05469,3.47656 3.25781,6.51172 6.04297,8.73438c0.05859,0.05078 0.11719,0.09766 0.15625,0.13281c0.00781,0.00391 0.01563,0.01172 0.02344,0.01563c0.25,0.19531 0.51172,0.39453 0.78516,0.58594c0.00391,0.00391 0.01172,0.00781 0.01953,0.01172c0.125,0.08594 0.25,0.16797 0.38672,0.25391c0,0.00391 0,0.00391 0,0.00391c0.00781,0.00391 0.07813,0.05859 0.21094,0.13672c0.1875,0.12109 0.375,0.23438 0.53125,0.33203c0.00781,0.00391 0.01172,0.00781 0.01563,0.01172c0.07031,0.03906 0.11719,0.06641 0.13672,0.07422c0.14063,0.08594 0.29688,0.17969 0.48438,0.27734c0,0 0,0 0,0.00391c0.07422,0.03516 0.14844,0.07422 0.22266,0.10938c0.12109,0.0625 0.23828,0.125 0.35547,0.1875c0.00781,0.00391 0.01563,0.00781 0.02734,0.01172c0.21875,0.10938 0.45313,0.21875 0.69531,0.32422c0.12891,0.06641 0.18359,0.08594 0.21875,0.09766c0.22656,0.10156 0.44141,0.18359 0.63672,0.26172c0.09766,0.03906 0.19141,0.07422 0.26563,0.10547l-0.00391,-0.00391c0.20703,0.07813 0.41016,0.14453 0.60156,0.20703c0.05859,0.02344 0.14063,0.04688 0.23047,0.07422c0.27734,0.09375 0.5625,0.17969 0.85156,0.25391c3.75,0.98828 7.32422,0.48047 10.34375,-0.9375c-1.83594,1.64453 -4.5,3.07813 -8.5625,3.16797c-1.21094,0.02734 -2.54297,-0.06641 -4.01172,-0.3125c-0.00391,-0.00391 -0.00781,-0.00391 -0.01172,-0.00391c-0.12109,-0.01953 -0.33203,-0.09766 -0.63672,-0.19531c-0.08594,-0.02344 -0.16016,-0.05078 -0.23828,-0.07812c-0.17187,-0.05469 -0.34766,-0.11719 -0.51953,-0.17969l-0.00781,-0.00391c-0.04297,-0.01562 -0.12891,-0.04687 -0.23047,-0.08203l-0.02344,-0.01172c-0.00781,-0.00391 -0.00781,-0.00391 -0.01562,-0.00391c-0.16406,-0.06641 -0.33594,-0.14062 -0.51562,-0.21875c0,0 0,0 -0.00391,0c-0.05078,-0.02344 -0.10156,-0.04687 -0.16016,-0.06641c-0.23437,-0.10937 -0.45703,-0.21094 -0.66406,-0.31641c-0.01172,-0.00391 -0.02344,-0.00781 -0.03516,-0.01172c-0.10156,-0.05859 -0.21484,-0.11719 -0.33594,-0.17578l-0.01172,-0.00781c-0.00781,-0.00391 -0.01172,-0.00781 -0.01953,-0.01172c-0.04687,-0.02344 -0.09766,-0.05078 -0.09766,-0.05078c-0.02344,-0.01562 -0.04687,-0.02734 -0.06641,-0.03906c-0.14453,-0.07422 -0.29297,-0.16016 -0.43359,-0.24609c-0.02734,-0.01562 -0.05078,-0.02734 -0.07812,-0.04297c0,0 -0.02344,-0.01172 -0.03516,-0.01562c-0.17187,-0.10547 -0.33594,-0.20703 -0.50391,-0.31641c-0.00391,-0.00391 -0.00781,-0.00781 -0.01172,-0.01172c-0.01562,-0.00781 -0.06641,-0.04297 -0.15234,-0.09766c-0.125,-0.08203 -0.22656,-0.14844 -0.30469,-0.20312c-0.02344,-0.01953 -0.05078,-0.03516 -0.07812,-0.05469c0,0 -0.00391,0 -0.00781,-0.00391c-0.22656,-0.16406 -0.44922,-0.32812 -0.66016,-0.49609c-0.01172,-0.00781 -0.02344,-0.01562 -0.03125,-0.02344c-0.00391,-0.00391 -0.0625,-0.05078 -0.13672,-0.10937c-0.22266,-0.17578 -0.43359,-0.35156 -0.64062,-0.53516c-0.00391,-0.00391 -0.00391,-0.00391 -0.00781,-0.00781c-0.00781,-0.00781 -0.01953,-0.01562 -0.02734,-0.02344c-0.00391,-0.00391 -0.01172,-0.00781 -0.01562,-0.01172c-0.00781,-0.00781 -0.01172,-0.01172 -0.01562,-0.01562c-0.19531,-0.17578 -0.38672,-0.35547 -0.57812,-0.54297l-0.01172,-0.01172c-0.05078,-0.05078 -0.09766,-0.09766 -0.14062,-0.14453c-0.00391,0 -0.00391,-0.00391 -0.00781,-0.00391c-0.20703,-0.20703 -0.39453,-0.40234 -0.55859,-0.59375c-0.03125,-0.03516 -0.0625,-0.06641 -0.09766,-0.09375c-0.38281,-0.33594 -0.80859,-0.96875 -1.22656,-1.57812c-0.00391,-0.00391 -0.00391,-0.00391 -0.00391,-0.00781c-0.42187,-0.60156 -0.79687,-1.23828 -1.125,-1.89844c0,-0.00391 0,-0.00391 0,-0.00781c-1.67578,-3.30859 -1.89844,-7.3125 -0.44141,-10.66016zM7.26953,14.07813c-0.22266,1.74609 -0.30078,3.59766 -0.12891,5.51563c0.39063,4.32422 1.70703,8.76953 3.92188,11.81641c0.15234,0.21875 0.30859,0.42578 0.46875,0.63672c0.05859,0.07813 0.09766,0.125 0.10938,0.14063c0.01563,0.02344 0.03125,0.04688 0.05078,0.06641c0.125,0.15625 0.25391,0.31641 0.38672,0.48438c0.01172,0.01172 0.01953,0.01953 0.03125,0.03125c0.02344,0.02734 0.06641,0.08594 0.13672,0.16797c0.17969,0.21094 0.36719,0.42969 0.5625,0.64453c0.00781,0.00781 0.01563,0.01953 0.02344,0.02734c0.18359,0.20313 0.375,0.40625 0.57031,0.60547c0.05078,0.05078 0.10547,0.10938 0.17188,0.17578c0.00391,0.00391 0.00391,0.00391 0.00391,0.00391l0.00391,0.00391c0.15625,0.15625 0.30078,0.30078 0.4375,0.43359c0.00781,0.00781 0.01953,0.01953 0.02734,0.02734c0.03125,0.02734 0.07813,0.07813 0.16016,0.15625c0.00391,0.00391 0.00781,0.00391 0.01172,0.00781c0.19922,0.1875 0.40625,0.38281 0.62109,0.57031c0.01563,0.01953 0.03516,0.03516 0.05469,0.05078c0.08203,0.0625 0.0625,0.07031 -0.0625,-0.06641c0.02734,0.02734 0.05469,0.05469 0.08203,0.07813c0.19531,0.17578 0.39453,0.34766 0.61328,0.52344c0.07813,0.0625 0.14063,0.11328 0.1875,0.15234c0.00391,0.00391 0.01172,0.01172 0.01563,0.01563c0.16797,0.13672 0.32813,0.25781 0.47656,0.375c0.01172,0.01172 0.02344,0.01953 0.03125,0.02734c0.06641,0.04297 0.12891,0.09375 0.19922,0.14453c0.00781,0.01172 0.01563,0.01953 0.02734,0.02734c0.17578,0.125 0.34766,0.25391 0.53516,0.38672c0.03906,0.02734 0.09766,0.07422 0.17188,0.12891c0.00391,0 0.00781,0.00391 0.01563,0.00391c0.17969,0.125 0.37109,0.25781 0.57813,0.38672c0.05469,0.03906 0.11719,0.08594 0.19922,0.13672c0.00391,0.00391 0.00781,0.00391 0.00781,0.00391c0.26563,0.17188 0.53125,0.33594 0.78906,0.48828c0.00781,0.00391 0.01563,0.01172 0.02734,0.01563c0.08594,0.04688 0.125,0.07031 0.11719,0.06641c0.02344,0.01563 0.05078,0.03516 0.07813,0.05078c0.1875,0.10156 0.38281,0.21484 0.58984,0.32813l0.00391,0.00391c0.00391,0 0.00781,0.00391 0.01563,0.00391c0.12891,0.07422 0.24609,0.13281 0.34375,0.18359c0.15234,0.08203 0.31641,0.16797 0.48828,0.25c0.00391,0.00391 0.01563,0.00781 0.01563,0.01172c0.00781,0 0.00781,0 0.01172,0.00391c0.05859,0.02734 0.125,0.06641 0.23047,0.10938c0.19531,0.09766 0.39453,0.19141 0.60156,0.28516c0.01563,0.00781 0.03125,0.01563 0.04688,0.02344c0.00391,0 0.07031,0.02734 0.12109,0.05078c0.25,0.10938 0.51563,0.22266 0.79297,0.33203c0,0.00391 0.00391,0.00391 0.00391,0.00391c0.08984,0.03516 0.14453,0.05469 0.15625,0.05859c0.01563,0.00781 0.02734,0.01172 0.04297,0.01563c0.23047,0.09375 0.47266,0.1875 0.73047,0.27734c0.04297,0.01563 0.08984,0.03125 0.13281,0.04688c0.24609,0.08594 0.5,0.16797 0.76172,0.25c0.10156,0.03516 0.19141,0.05859 0.26953,0.08203c0.25781,0.07813 0.54297,0.17188 0.87109,0.24609c5.29297,1.21875 10.83203,0.91016 15.33203,-1.37891c-2.60156,2.60547 -6.86719,5.22266 -13.54687,5.22266c-1.54297,0 -3.21484,-0.14844 -5.03125,-0.48437c-0.17969,-0.03516 -0.41016,-0.11328 -0.71875,-0.20703c-0.01562,-0.00781 -0.03125,-0.01172 -0.04687,-0.01562c-0.00391,0 -0.06641,-0.01953 -0.14062,-0.04297l-0.03125,-0.00781c-0.25,-0.07812 -0.49609,-0.16016 -0.74609,-0.24609c-0.00781,-0.00391 -0.01172,-0.00391 -0.01953,-0.00781c-0.02734,-0.00781 -0.01953,-0.00391 -0.01172,-0.00391c-0.01172,-0.00391 -0.02734,-0.01172 -0.03906,-0.01562c-0.23828,-0.08594 -0.47656,-0.17578 -0.69922,-0.26172c-0.01562,-0.00781 -0.03516,-0.01172 -0.05469,-0.01953c0.00781,0.00391 -0.04687,-0.01953 -0.12891,-0.05078l-0.01562,-0.00781c-0.24219,-0.09766 -0.47656,-0.19531 -0.71484,-0.30078c-0.04687,-0.01953 -0.10937,-0.05078 -0.11719,-0.05078c-0.00391,-0.00391 -0.00781,-0.00781 -0.01172,-0.00781c-0.21875,-0.09766 -0.42187,-0.19141 -0.61719,-0.28906h-0.00781c-0.01562,-0.01172 -0.07422,-0.03906 -0.11328,-0.05859c-0.08984,-0.05078 -0.10156,-0.05078 -0.13281,-0.0625l-0.01562,-0.00391c-0.125,-0.06641 -0.25,-0.13281 -0.37109,-0.19922c-0.01172,-0.00781 -0.02344,-0.01562 -0.03516,-0.01953c-0.11719,-0.05859 -0.20703,-0.10547 -0.27734,-0.14453c-0.00391,-0.00391 -0.01172,-0.00781 -0.01562,-0.00781c-0.17969,-0.09766 -0.35937,-0.19922 -0.53906,-0.30469l-0.00781,-0.00391c-0.07812,-0.04687 -0.15234,-0.08984 -0.23047,-0.12891l-0.01953,-0.01562c-0.23437,-0.14062 -0.46484,-0.28516 -0.69531,-0.43359c-0.06641,-0.04687 -0.13281,-0.08594 -0.19922,-0.12891l-0.00391,-0.00391c0,0 0,0 -0.00391,0c-0.15234,-0.10547 -0.30078,-0.20703 -0.46094,-0.3125c-0.02344,-0.01953 -0.05078,-0.03906 -0.07812,-0.05859c-0.03906,-0.02344 -0.08594,-0.05859 -0.14062,-0.09766c-0.00391,-0.00391 -0.00781,-0.00781 -0.01172,-0.01172c-0.16406,-0.11328 -0.32422,-0.23047 -0.47656,-0.34375l-0.00391,-0.00391h-0.00391c-0.07422,-0.05859 -0.14844,-0.11719 -0.23047,-0.17969l-0.00391,-0.00391c-0.15625,-0.11719 -0.30078,-0.22656 -0.43359,-0.33594l-0.00391,-0.00391c-0.07812,-0.0625 -0.14453,-0.11328 -0.19922,-0.16016c0,-0.00391 -0.00391,-0.00391 -0.00391,-0.00391c-0.17969,-0.15234 -0.35547,-0.30469 -0.53125,-0.45312c-0.02344,-0.02344 -0.04297,-0.03906 -0.05859,-0.04687c-0.01562,-0.01953 -0.03516,-0.03516 -0.05078,-0.05078c-0.17969,-0.15234 -0.36328,-0.32812 -0.55469,-0.50781l-0.00391,-0.00781c-0.06641,-0.0625 -0.125,-0.11328 -0.17578,-0.16406c-0.00391,-0.00391 -0.00781,-0.00781 -0.01172,-0.01172c-0.125,-0.11719 -0.25391,-0.25391 -0.39844,-0.39844c-0.00781,-0.00781 -0.01562,-0.01562 -0.02344,-0.02734c-0.05469,-0.05078 -0.10156,-0.09375 -0.14844,-0.14062c-0.17578,-0.1875 -0.34766,-0.37109 -0.51953,-0.55859c-0.00391,-0.00391 -0.00781,-0.00781 -0.00781,-0.00781c-0.00781,-0.01172 -0.01562,-0.01953 -0.02734,-0.02734c-0.17187,-0.19531 -0.33984,-0.38672 -0.5,-0.58203c-0.00781,-0.00781 -0.01562,-0.01562 -0.02344,-0.02734c-0.03125,-0.03516 -0.07422,-0.08594 -0.12109,-0.14062l-0.00391,-0.00391c0,-0.00391 -0.00391,-0.00781 -0.00781,-0.01172c-0.12109,-0.15234 -0.25,-0.3125 -0.38281,-0.47266c-0.04687,-0.0625 -0.08984,-0.12109 -0.10937,-0.15234c-0.01172,-0.01172 -0.01953,-0.02344 -0.02734,-0.03125c-0.12891,-0.16797 -0.25781,-0.33594 -0.38672,-0.51562l-0.00781,-0.01172c-0.03516,-0.05078 -0.05859,-0.07812 -0.04687,-0.0625c-0.00781,-0.01172 -0.01562,-0.02344 -0.02344,-0.03516c-0.00781,-0.01172 -0.01562,-0.01953 -0.02344,-0.03125c-0.00391,-0.00391 -0.00781,-0.01172 -0.01172,-0.01562c0,0 0,0 -0.00391,0c-0.13281,-0.1875 -0.26562,-0.38672 -0.40625,-0.59766c-0.00391,-0.01172 -0.01172,-0.02344 -0.02344,-0.03516c-0.02344,-0.03516 -0.05469,-0.08594 -0.09375,-0.14844l-0.01172,-0.01562c-0.11719,-0.19141 -0.22266,-0.34766 -0.29297,-0.46875c-0.00781,-0.01562 -0.01953,-0.03516 -0.03125,-0.05078c-0.03125,-0.04687 -0.07031,-0.11719 -0.12891,-0.21094l-0.00391,-0.00781c-0.08203,-0.13672 -0.16797,-0.28125 -0.25781,-0.43359v-0.00781c-0.00781,-0.00781 -0.00781,-0.01172 -0.01562,-0.01953c-0.03906,-0.07812 -0.07422,-0.14453 -0.10156,-0.19922c-0.01172,-0.02344 -0.02344,-0.04297 -0.03906,-0.06641c-0.04297,-0.07812 -0.05859,-0.11328 -0.02344,-0.03906c-0.01562,-0.03516 -0.03125,-0.06641 -0.04687,-0.09375c-0.03516,-0.0625 -0.07031,-0.12109 -0.09375,-0.18359c-0.00781,-0.01562 -0.01562,-0.03125 -0.02344,-0.04687c-0.07812,-0.14844 -0.14062,-0.26562 -0.1875,-0.35937c-0.00391,-0.01172 -0.00781,-0.02344 -0.01172,-0.03125c-2.60547,-5.25391 -2.97266,-13.35156 0.11719,-18.35937zM22.31641,27.10547l0.01172,0.00391c0.01563,0.02344 0.01172,0.01563 0.03125,0.04688c-0.01172,-0.01953 -0.02734,-0.03516 -0.04297,-0.05078zM10.66797,37.60547c0,0 0.01172,0.01172 0.01563,0.01563c0.01172,0.01172 0.00781,0.00781 0.01953,0.02344l0.00391,0.00391v0.00391c0.00781,0.00391 0.01172,0.01563 0.01563,0.02344c-0.03125,-0.04297 -0.04297,-0.05859 -0.05469,-0.07031zM14.74609,41.17188l0.03516,0.01953c-0.07031,-0.05078 -0.06641,-0.05469 0,0.00781c-0.01172,-0.01172 -0.02344,-0.01953 -0.03516,-0.02734z"></path></g></g></svg>