<?xml version="1.0" encoding="UTF-8"?><svg id="_レイヤー_2" xmlns="http://www.w3.org/2000/svg" viewBox="0 0 82.29 98.17"><defs><style>.cls-1{stroke-width:2.27px;}.cls-1,.cls-2{fill:none;stroke:#f5a84d;stroke-miterlimit:10;}.cls-2{stroke-width:2.7px;}.cls-3{fill:#f5a84d;}</style></defs><g id="_レイヤー_1-2"><path class="cls-2" d="m74.72,58.42c-.77.63.73,3.95.4,5.19-.33,1.24-2.11,2.13-2.11,2.13,0,0,1.68,1.3,1.48,2.85-.19,1.44-3.33,3.22-3.72,4.75-.38,1.53,2.22,4.43.35,7.76-2.41,4.27-8.7,2.43-10.19,2.15-1.5-.29-4.05-1.61-5.26-1.27-1.55.44-2.43,6.74-2.84,10.89-.21,2.1-1.93,3.73-4.04,3.82-9.19.39-32.17.45-33.16-8.73-.62-5.75,3.56-18.05,1.84-22.65-1.85-4.94-19.89-19.31-15.41-40.93C10.8-6.89,54.47-.86,67.13,10.7c7.93,7.24,8.16,20.96,8.05,22.3-.21,2.45-2.3,3.51-2.07,6.55.23,3.05,7.59,13.51,7.82,16.21.23,2.7-5.44,2.01-6.21,2.64Z"/><path class="cls-3" d="m27.83,55.1h-.97c-.1-.19-.25-.34-.43-.44v-1.41c0-.26-.21-.48-.48-.48s-.48.21-.48.48v1.4c-.51.25-.72.88-.47,1.39s.88.72,1.39.47c.2-.1.36-.26.46-.45h.97c.26,0,.48-.21.48-.48s-.21-.48-.48-.48h0Zm-1.89.56s-.09-.04-.09-.09c0-.05.04-.09.09-.09.05,0,.09.04.09.09,0,0,0,0,0,0,0,.05-.04.09-.09.09Z"/><path class="cls-3" d="m38.9,43.84h-5.78c-.38,0-.69.31-.69.69v15.3c0,.38.31.69.69.69h5.78c.38,0,.69-.31.69-.69v-15.3c0-.38-.31-.69-.69-.69Zm-.69,15.3h-4.4v-7.82h4.4v7.82Zm0-9.21h-4.4v-4.71h4.4v4.71Z"/><path class="cls-3" d="m47.94,36.31h-5.78c-.38,0-.69.31-.69.69v22.84c0,.38.31.69.69.69h5.78c.38,0,.69-.31.69-.69v-22.84c0-.38-.31-.69-.69-.69Zm-.69,22.84h-4.4v-13.34h4.4v13.34Zm0-14.73h-4.4v-6.72h4.4v6.72Z"/><path class="cls-3" d="m56.99,29.85h-5.79c-.38,0-.69.31-.69.69h0v29.3c0,.38.31.69.69.69h5.79c.38,0,.69-.31.69-.69v-29.3c0-.38-.31-.69-.69-.69h0Zm-.69,29.3h-4.4v-16.98h4.4v16.98Zm0-18.37h-4.4v-9.54h4.4v9.54Z"/><path class="cls-1" d="m26.56,18.92c-.48.05-.91-.3-.95-.78s.3-.91.78-.95c.06,0,.12,0,.17,0,.3,0,.59.13.78.37,1.11,1.4,3.14,1.63,4.54.52,1.38-1.1,1.63-3.1.56-4.5-.72-.92-1.65-1.66-2.7-2.16-.32-1.76-2-2.92-3.75-2.6-1.33.24-2.37,1.28-2.61,2.61-3.67,1.69-5.27,6.04-3.58,9.7,1.21,2.63,3.86,4.29,6.76,4.25.48-.05.91.3.96.78.05.48-.3.91-.78.96-.06,0-.12,0-.18,0-.31,0-.6-.13-.79-.37-1.09-1.42-3.12-1.68-4.53-.59-1.42,1.09-1.68,3.12-.59,4.53,0,.01.02.03.03.04.72.93,1.66,1.67,2.73,2.16.39,1.74,2.12,2.84,3.87,2.44,1.22-.28,2.17-1.23,2.44-2.45,3.67-1.68,5.29-6.02,3.6-9.69-1.21-2.64-3.86-4.31-6.76-4.27Z"/><path class="cls-3" d="m66.15,22.44h-5.79c-.38,0-.69.31-.69.69v36.71c0,.38.31.69.69.69h5.79c.38,0,.69-.31.69-.69V23.13c0-.38-.31-.69-.69-.69h0Zm-.69,36.71h-4.4v-25.53h4.4v25.53Zm0-26.92h-4.4v-8.4h4.4v8.4Z"/><path class="cls-3" d="m46.27,28.64h-.68c1.75-.38,2.99-1.92,3-3.71v-2.53c.33-.06.56-.35.56-.68,0-1.41-1.15-2.56-2.56-2.56-.2,0-.39-.03-.58-.09-.39-.13-.8-.21-1.21-.23-2.1,0-3.8,1.7-3.8,3.8v2.29c0,1.79,1.25,3.33,3,3.71h-.68c-1.92,0-3.48,1.56-3.48,3.48v2.72c0,.38.31.69.69.69h8.53c.38,0,.69-.31.69-.69v-2.72c0-1.92-1.56-3.48-3.48-3.48Zm-3.89-6.01c0-1.33,1.08-2.41,2.41-2.41.06,0,.29.01.81.17.32.1.65.15.99.15.37,0,.72.18.94.47h-2.81c-.75,0-1.35.61-1.35,1.35,0,.41-.33.74-.74.74h-.25v-.47Zm0,2.29v-.43h.25c1.16,0,2.1-.93,2.13-2.09h2.44v2.52c.02,1.33-1.04,2.43-2.37,2.45s-2.43-1.04-2.45-2.37c0-.02,0-.05,0-.07Zm5.98,9.22h-7.14v-2.03c0-1.16.94-2.09,2.09-2.09h2.96c1.16,0,2.09.94,2.09,2.09v2.03Z"/><path class="cls-3" d="m47.19,31.19h-.85c-.38,0-.69.31-.69.69s.31.69.69.69h.85c.38,0,.69-.31.69-.69s-.31-.69-.69-.69Z"/><path class="cls-3" d="m53.3,34.02c.38,0,.69-.31.69-.69h0v-.39c0-.38-.31-.69-.69-.69s-.69.31-.69.69v.39c0,.38.31.69.69.69h0Z"/><path class="cls-3" d="m53.3,39.92c.38,0,.69-.31.69-.69v-3.82c0-.38-.31-.69-.69-.69s-.69.31-.69.69v3.82c0,.38.31.69.69.69Z"/><path class="cls-3" d="m25.88,50.61c-2.71,0-4.91,2.19-4.92,4.9s2.19,4.91,4.9,4.92c2.71,0,4.91-2.19,4.92-4.9,0,0,0,0,0,0,0-2.71-2.19-4.9-4.9-4.91Zm3.55,5.42h.36c-.09.71-.38,1.39-.82,1.95l-.31-.31c-.17-.18-.45-.2-.64-.05-.2.16-.23.46-.07.66,0,.01.02.02.03.03l.32.32c-.57.45-1.25.73-1.96.81v-.41c0-.26-.21-.47-.47-.47h0c-.26,0-.47.21-.47.47,0,0,0,0,0,0v.41c-.72-.09-1.39-.37-1.96-.82l.3-.3c.18-.17.2-.45.04-.64-.16-.2-.46-.23-.66-.06-.01,0-.02.02-.03.03l-.32.32c-.44-.56-.73-1.23-.82-1.94h.43c.24,0,.45-.17.49-.4.04-.26-.14-.5-.4-.54-.02,0-.04,0-.07,0h-.46c.08-.73.36-1.41.81-1.99l.33.33c.18.18.47.18.65.01.19-.19.19-.5,0-.68,0,0,0,0,0,0l-.32-.32c.57-.45,1.26-.74,1.98-.83v.48c0,.26.21.38.47.46h0c.26,0,.47-.21.47-.47v-.48c.72.09,1.41.37,1.98.82l-.33.34c-.19.19-.19.5,0,.68.19.17.48.17.66-.02l.33-.34c.46.58.74,1.27.82,2h-.37c-.26,0-.48.21-.48.48s.21.48.48.48Z"/></g></svg>