<?xml version="1.0" encoding="UTF-8"?><svg id="_レイヤー_2" xmlns="http://www.w3.org/2000/svg" viewBox="0 0 155.56 155.38"><defs><style>.cls-1{fill:none;stroke:#f5a84d;stroke-miterlimit:10;stroke-width:3px;}.cls-2{fill:#f5a84d;}</style></defs><g id="_レイヤー_1-2"><path class="cls-2" d="m77.78,0c-1.05,0-1.9.85-1.9,1.9v19.46c0,1.05.85,1.9,1.9,1.9s1.9-.85,1.9-1.9V1.9C79.69.85,78.83,0,77.78,0h0Z"/><path class="cls-2" d="m113.19,27.88l-5.22,5.22c-.74.74-.74,1.95,0,2.69.74.74,1.95.74,2.69,0h0l5.22-5.22c.74-.75.73-1.96-.02-2.69-.74-.73-1.93-.73-2.67,0Z"/><path class="cls-2" d="m39.57,27.88c-.74.74-.74,1.95,0,2.69l5.22,5.22c.74.75,1.94.76,2.69.02.75-.74.76-1.94.02-2.69,0,0-.01-.01-.02-.02l-5.22-5.22c-.74-.74-1.95-.74-2.69,0,0,0,0,0,0,0Z"/><path class="cls-2" d="m51.51,9.81c-.95.44-1.37,1.58-.92,2.53l6.54,14.01c.44.95,1.58,1.37,2.53.92.95-.44,1.37-1.58.92-2.53h0l-6.54-14.01c-.44-.95-1.58-1.37-2.53-.92,0,0,0,0,0,0Z"/><path class="cls-2" d="m101.42,10.74l-6.54,14.01c-.44.95-.03,2.09.92,2.53s2.09.03,2.53-.92l6.54-14.01c.45-.95.05-2.09-.9-2.54-.95-.45-2.09-.05-2.54.9,0,0,0,.02-.01.03h0Z"/><path class="cls-2" d="m22.42,42.35l14.02,6.53c.95.45,2.09.05,2.54-.9.45-.95.05-2.09-.9-2.54,0,0-.02,0-.02-.01l-14.01-6.53c-.95-.44-2.09-.03-2.53.92s-.03,2.09.92,2.53Z"/><path class="cls-2" d="m116.49,47.96c.44.95,1.58,1.37,2.53.92,0,0,0,0,0,0l14.02-6.53c.95-.45,1.35-1.59.9-2.54-.45-.94-1.57-1.35-2.51-.91l-14.02,6.53c-.95.44-1.37,1.58-.92,2.53,0,0,0,0,0,0Z"/><path class="cls-2" d="m65.87,126.89l-.28-4.71c-1.27-9.17-7.58-16.84-16.33-19.86l-1.48-.52c-2.05-.71-3.91-1.88-5.44-3.41l-7.19-7.19-2.43-8.32c-1.2-4.51-5.07-7.8-9.71-8.26l-.39-1.31s0-.03-.01-.05c-1.15-3.52-4.97-5.78-8.86-5.54l-.11-.37c-1.55-5.2-6.91-8.26-12.18-6.95-.98.24-1.6,1.21-1.41,2.2l7.48,40.13c.53,2.93,1.62,5.74,3.19,8.27,1.93,3.06,4.45,5.71,7.42,7.77l17.23,11.87s.07.04.1.07c1.21.72,2.11,1.86,2.53,3.2l1.31,17.69c.06.76.57,1.42,1.29,1.67l.35.12c7.76,2.63,16.15,2.68,23.95.17l.82-.28c.78-.26,1.3-.99,1.28-1.81v-9.9c-.03-4.59-.38-9.17-1.07-13.7-.05-.32-.03-.64-.05-.96Zm-36.82-43.01l.78,2.73c-1.13-.6-2.34-1.02-3.6-1.24l-1.98-6.59c2.33.82,4.12,2.72,4.79,5.1Zm-10.07-9.46l3.27,10.91c-1.02.16-2.02.44-2.97.86l-4.38-14.63c1.77.19,3.53,1.19,4.09,2.86h0Zm44.21,75.63c-6.59,2.03-13.64,2.03-20.22-.02l-1.21-16.62c0-.13-.02-.25-.05-.38-.65-2.32-2.16-4.31-4.23-5.57l-17.18-11.83c-4.02-2.8-7.05-6.8-8.65-11.43l-7.49-40.3c2.71.11,5.05,1.93,5.82,4.52l5.97,19.92c-.13.12-.25.24-.38.36-.15.15-.28.32-.37.51-.37.76-.19,1.67.43,2.24l8.63,7.88c2.05,1.88,3.97,3.9,5.72,6.07.67.81,1.87.92,2.68.25.79-.66.92-1.82.29-2.63-1.88-2.32-3.92-4.49-6.12-6.5l-6.98-6.37c3.26-1.95,7.42-1.44,10.11,1.24l9.68,9.68c1.94,1.94,4.29,3.41,6.88,4.32l1.48.52c7.37,2.54,12.7,9,13.8,16.72l.26,4.5c.03.59.12,1.54.2,2.13.58,4.07.89,8.18.91,12.29v8.51Z"/><path class="cls-2" d="m154.12,60.39c-5.26-1.31-10.63,1.75-12.18,6.95l-.11.37c-3.9-.24-7.71,2.03-8.87,5.54,0,.02,0,.03-.01.05l-.39,1.31c-4.64.46-8.51,3.75-9.71,8.26l-2.44,8.32-7.18,7.19c-1.53,1.53-3.39,2.7-5.43,3.41l-1.48.52c-8.75,3.02-15.06,10.7-16.33,19.86l-.28,4.71c-.02.32,0,.64-.05.95-.68,4.54-1.04,9.12-1.07,13.7v9.9c0,.82.52,1.56,1.3,1.82,7.85,2.65,16.34,2.7,24.21.15l.48-.16c.72-.24,1.23-.88,1.3-1.63l1.7-17.71c.42-1.35,1.32-2.49,2.53-3.21.03-.02.07-.04.1-.07l17.23-11.87c3.54-2.46,6.43-5.74,8.45-9.55,1.01-1.94,1.72-4.02,2.11-6.17l7.54-40.46c.18-.99-.44-1.95-1.41-2.2Zm-17.53,14.03c.56-1.67,2.32-2.67,4.09-2.86l-4.38,14.63c-.95-.41-1.95-.7-2.98-.86l3.27-10.91Zm-10.07,9.46c.67-2.38,2.46-4.29,4.79-5.1l-1.98,6.59c-1.25.22-2.46.64-3.59,1.24l.77-2.72Zm17.41,20.33c-1.6,4.63-4.63,8.62-8.65,11.42l-17.18,11.84c-2.07,1.25-3.58,3.24-4.23,5.57-.03.11-.05.22-.06.34l-1.55,16.65c-6.47,1.95-13.38,1.96-19.86.04v-8.51c.03-4.41.37-8.81,1.03-13.16.06-.42.08-.85.1-1.27l.25-4.48c1.1-7.72,6.42-14.17,13.79-16.72l1.48-.52c2.59-.9,4.94-2.38,6.88-4.31l9.68-9.68c2.69-2.68,6.85-3.19,10.11-1.24l-6.98,6.37c-2.2,2.01-4.25,4.18-6.12,6.5-.64.83-.49,2.03.34,2.67.81.63,1.97.5,2.63-.29,1.75-2.16,3.66-4.19,5.72-6.07l8.6-7.86c.21-.18.37-.4.49-.65.32-.72.17-1.57-.39-2.13-.12-.12-.25-.24-.38-.36l5.97-19.92c.77-2.6,3.11-4.42,5.82-4.52l-7.49,40.3Z"/><path class="cls-1" d="m84.29,49.59c-11.93-8.19-25.63-12.48-33.28-5.04-24.35,23.67,29.3,69.62,37.07,60.43,6.37-7.52-10.76-14.36-5.21-21.99,4.63-6.37,15.56,9.2,22.7.3,4.78-5.96-2.79-18.22-14.03-28.06"/><ellipse class="cls-1" cx="94.24" cy="74.06" rx="3.99" ry="6.34" transform="translate(-24.76 88.33) rotate(-45)"/><circle class="cls-1" cx="71.58" cy="87.89" r="3.83"/><circle class="cls-1" cx="63.34" cy="79.65" r="3.83"/><circle class="cls-1" cx="56.86" cy="70.23" r="3.83"/><circle class="cls-1" cx="53.92" cy="59.05" r="3.83"/><circle class="cls-1" cx="60.98" cy="50.81" r="3.83"/><circle class="cls-1" cx="72.17" cy="51.4" r="3.83"/><path class="cls-1" d="m82.5,69.34c.8,1.07,1.01,2.51.47,3.95,0,0-.88,2.01-3.43,3.88-2.27,1.67-4.8,2.95-4.8,2.95,1.68-2.08-1.11-7.49.93-10.5.12-.17.24-.35.38-.52.7-.83,1.71-1.32,2.75-1.41"/><path class="cls-1" d="m81.87,69.17l-2.51-1.11c-.67-.3-.97-1.08-.67-1.75h0c.3-.67,1.08-.97,1.75-.67l2.51,1.11c.67.3.97,1.08.67,1.75h0c-.3.67-1.08.97-1.75.67Z"/><path class="cls-1" d="m80.19,65.56s3.68-14.35,14.44-30.74c.61-.93,2.04-.3,1.77.78-1.75,6.83-5.69,19.55-13.06,31.36"/></g></svg>