<?xml version="1.0" encoding="UTF-8"?><svg id="_レイヤー_2" xmlns="http://www.w3.org/2000/svg" viewBox="0 0 171 131.83"><defs><style>.cls-1{fill:none;stroke:#f5a84d;stroke-miterlimit:10;stroke-width:3px;}.cls-2{fill:#f5a84d;}</style></defs><g id="_レイヤー_1-2"><path class="cls-1" d="m142.78,39.98c5.58,0,10.1,4.52,10.1,10.1v70.1c0,5.58-4.52,10.1-10.1,10.1H33.36c-5.58,0-10.1-4.52-10.1-10.1V50.08c0-5.58,4.52-10.1,10.1-10.1"/><path class="cls-1" d="m112.83,33.12l17.15-4.75c6.43-1.78,12.8,3.06,12.8,9.73v65.49c0,6.81-4.54,12.78-11.11,14.6l-43.6,12.07-43.6-12.07c-6.56-1.82-11.11-7.79-11.11-14.6V38.11c0-6.68,6.36-11.52,12.8-9.73l41.91,11.61,10.1-2.8"/><line class="cls-1" x1="88.07" y1="79.14" x2="88.07" y2="39.98"/><circle class="cls-1" cx="112.48" cy="94.29" r="17.68"/><circle class="cls-1" cx="63.66" cy="94.29" r="17.68"/><line class="cls-1" x1="94.81" y1="94.29" x2="81.34" y2="94.29"/><line class="cls-1" x1="88.07" y1="130.27" x2="88.07" y2="109.44"/><path class="cls-1" d="m112.83,30.6v16.28c0,1.89-1.26,3.55-3.08,4.06l-8.16,2.26c-1.72.48-3.41-.82-3.41-2.6v-15.94l14.66-4.06Z"/><path class="cls-2" d="m48.4,13.2c-.42-.42-1.84-1.32-3.62-2.36-3.87-2.27-9.41-5.25-10.02-5.56-.88-.44-3.96,1.32-5.9,1.32h-2.53c-.21-.59-.62-2.26-.98-3.42l.17.34.88-3.52-1.76,1.76.1.2c-.58.17-2.26,3.51-2.49,4.64h-3.33c-.44,0-3.52-1.32-5.72-.88S0,13.2,0,13.2c0,0,1.32.44,4.49.4,3.17-.04,8.71-1.28,8.71-1.28,1.32,1.32,9.24,2.64,9.24,2.64,0,.88-1.32,7.04-1.32,7.04h6.16c-.44,0-1.32-7.04-.44-7.04s8.8-2.64,9.24-3.08,2.64,1.32,3.24,1.32,10.4,1.32,9.08,0Z"/><path class="cls-2" d="m170.94,31.3c-.21-.21-.91-.65-1.79-1.16-1.9-1.12-4.64-2.59-4.93-2.74-.43-.22-1.95.65-2.91.65h-1.25c-.1-.29-.3-1.11-.48-1.69l.08.17.43-1.73-.87.87.05.1c-.28.08-1.11,1.73-1.23,2.28h-1.64c-.22,0-1.73-.65-2.82-.43s-6.5,3.68-6.5,3.68c0,0,.65.22,2.21.2,1.56-.02,4.29-.63,4.29-.63.65.65,4.55,1.3,4.55,1.3,0,.43-.65,3.47-.65,3.47h3.03c-.22,0-.65-3.47-.22-3.47s4.33-1.3,4.55-1.52,1.3.65,1.6.65,5.12.65,4.47,0Z"/></g></svg>